<svg width="24" height="26" fill="none" xmlns="http://www.w3.org/2000/svg"><path d="M22.286.665H1.709C.766.665 0 1.475 0 2.468v21.395c0 .994.766 1.803 1.709 1.803h20.577c.943 0 1.714-.81 1.714-1.803V2.468c0-.993-.771-1.803-1.714-1.803ZM7.254 22.095H3.696V10.162H7.26v11.931h-.005ZM5.475 8.533c-1.141 0-2.062-.966-2.062-2.149s.92-2.148 2.062-2.148c1.136 0 2.063.965 2.063 2.148 0 1.189-.922 2.149-2.063 2.149Zm15.112 13.56H17.03v-5.803c0-1.384-.026-3.164-1.848-3.164-1.853 0-2.137 1.506-2.137 3.063v5.904H9.488v-11.93H12.9v1.629h.048c.477-.938 1.64-1.925 3.37-1.925 3.6 0 4.27 2.472 4.27 5.686v6.54Z" fill="#fff"/></svg>
