<svg width="179" height="36" fill="none" xmlns="http://www.w3.org/2000/svg"><path d="M5.281 26.672c-.208.302-.578.453-1.11.453-.52 0-.963-.146-1.327-.438a3.589 3.589 0 0 1-.906-1.093c-.48-.875-.72-1.75-.72-2.625s.095-1.771.282-2.688c.198-.916.464-1.88.797-2.89a44.47 44.47 0 0 1 1.156-3.125 56.495 56.495 0 0 1 1.422-3.11c1.02-2.104 2.036-3.927 3.047-5.469H7.75c-1.24 0-2.39.282-3.453.844-.26.198-.51.297-.75.297-.5 0-.985-.245-1.453-.734C1.01 4.948 1.656 4 4.03 3.25c1.115-.365 2.01-.547 2.688-.547.687 0 1.24.11 1.656.328.417.209.77.459 1.063.75.458.459.78.912.968 1.36.198.448.297.843.297 1.187 0 .333-.104.787-.312 1.36A17.618 17.618 0 0 1 9.625 9.5l-1.063 2.063c-.374.718-.75 1.473-1.124 2.265l-1.125 2.375a35.299 35.299 0 0 0-1 2.313c-.636 1.677-.954 3.099-.954 4.265 0 .646.063 1.203.188 1.672l1.64-2.734c3.334-5.375 6.625-9.417 9.875-12.125.917-.771 1.823-1.375 2.72-1.813a1.14 1.14 0 0 1 .515-.11 2.7 2.7 0 0 1 .625.079c.229.042.443.11.64.203.459.219.688.484.688.797a.623.623 0 0 1-.156.406l-.547.594c-2.084 2.208-3.485 5.292-4.203 9.25-.23 1.219-.344 2.188-.344 2.906 0 .709.02 1.193.063 1.453.041.26.125.506.25.735.28.52.703.781 1.265.781.563 0 1.188-.208 1.875-.625.688-.417 1.38-.99 2.078-1.719.709-.729 1.39-1.583 2.047-2.562a21.747 21.747 0 0 0 1.766-3.172c1.146-2.49 1.718-4.865 1.718-7.125 0-1.74-.385-3.214-1.156-4.422-.208-.313-.005-.719.61-1.219.625-.52 1.328-.781 2.109-.781 1.031 0 1.73.917 2.094 2.75.125.604.187 1.396.187 2.375 0 .98-.12 2.057-.36 3.234a21.14 21.14 0 0 1-1.015 3.454A22.748 22.748 0 0 1 28 18.28a23.601 23.601 0 0 1-1.922 2.89 21.922 21.922 0 0 1-2.219 2.454 16.82 16.82 0 0 1-2.39 1.875c-1.677 1.104-3.266 1.656-4.766 1.656-1.375 0-2.4-.541-3.078-1.625-.594-.937-.89-2.13-.89-3.578 0-2.396.463-4.724 1.39-6.984a71.104 71.104 0 0 0-2.531 3c-2.042 2.666-3.464 4.578-4.266 5.734l-2.047 2.969Zm33.407-19.5a3.1 3.1 0 0 1-.782.594c-.291.145-.599.24-.922.28a1.75 1.75 0 0 1-.922-.155 2.18 2.18 0 0 1-.734-.579c-.448-.52-.672-1.046-.672-1.578 0-.53.084-.927.25-1.187.177-.271.396-.49.657-.656.5-.323.968-.485 1.406-.485.448 0 .791.031 1.031.094.25.063.48.167.688.313.51.343.765.765.765 1.265 0 .49-.073.901-.219 1.234-.135.323-.317.61-.547.86Zm-3.204 16.906c.271 0 .407.177.407.531 0 .47-.214.953-.641 1.453-.625.73-1.464 1.094-2.516 1.094-1.208 0-2.036-.49-2.484-1.468-.167-.344-.25-.76-.25-1.25s.083-1.032.25-1.625c.177-.605.39-1.235.64-1.891.261-.667.542-1.339.844-2.016l.828-1.968c.605-1.47.907-2.438.907-2.907 0-.469-.052-.776-.157-.922A1.194 1.194 0 0 0 33 12.75l-.313-.219c-.104-.073-.156-.198-.156-.375a.83.83 0 0 1 .203-.531c.146-.167.334-.313.563-.438.469-.24 1.016-.359 1.64-.359 1.532 0 2.297.401 2.297 1.203 0 .938-.244 2.01-.734 3.219a69.802 69.802 0 0 1-1.25 2.906l-.938 2.157c-.687 1.583-1.03 2.724-1.03 3.421 0 .459.228.688.687.688.448 0 .786-.057 1.015-.172.23-.115.396-.172.5-.172Zm3.172.172c0-.323.068-.62.203-.89.146-.282.323-.516.532-.704.437-.406.895-.61 1.375-.61.416 0 .625.214.625.642 0 1.083.359 1.838 1.078 2.265.26.156.531.235.812.235.282 0 .521-.032.719-.094.198-.063.38-.162.547-.297.375-.302.562-.662.562-1.078 0-.417-.093-.797-.28-1.14a9.21 9.21 0 0 0-.704-1.11l-.89-1.25c-1.25-1.667-1.876-3.203-1.876-4.61 0-1.166.495-2.224 1.485-3.171 1.125-1.073 2.567-1.61 4.328-1.61 1.542 0 2.745.38 3.61 1.14.708.615 1.062 1.319 1.062 2.11 0 .823-.313 1.48-.938 1.969-.562.437-1.125.599-1.687.484a.89.89 0 0 1-.578-.375c-.136-.208-.162-.442-.078-.703a2.65 2.65 0 0 0 .124-.812c0-.282-.052-.542-.156-.782a1.822 1.822 0 0 0-.422-.609c-.364-.344-.75-.516-1.156-.516-.396 0-.724.047-.984.141-.26.083-.49.208-.688.375-.406.375-.61.838-.61 1.39 0 .542.095 1.011.282 1.407.188.396.417.791.688 1.187.28.396.583.797.906 1.203.323.407.62.834.89 1.282.657 1.052.985 1.979.985 2.781 0 .792-.167 1.458-.5 2-.333.531-.766.99-1.297 1.375a6.236 6.236 0 0 1-3.813 1.266c-1.343 0-2.406-.323-3.187-.97-.646-.54-.969-1.181-.969-1.921Zm29.922-.406c.219 0 .328.114.328.343 0 .896-.463 1.667-1.39 2.313-.615.438-1.198.656-1.75.656-.542 0-.974-.062-1.297-.187a2.42 2.42 0 0 1-.875-.594c-.584-.625-.875-1.484-.875-2.578 0-.219.041-.568.125-1.047-.844 1.302-1.568 2.219-2.172 2.75-1.219 1.104-2.412 1.656-3.578 1.656-1.844 0-3.052-.833-3.625-2.5-.209-.614-.313-1.385-.313-2.312 0-.927.14-1.865.422-2.813.281-.948.662-1.849 1.14-2.703a14.827 14.827 0 0 1 1.688-2.375c.646-.74 1.323-1.38 2.032-1.922 1.52-1.135 2.895-1.703 4.124-1.703 1.23 0 2.214.5 2.954 1.5 1.812-6.208 3.177-9.87 4.093-10.984.386-.459.792-.688 1.22-.688.708 0 1.244.203 1.609.61.114.135.171.27.171.406 0 .135-.083.385-.25.75-.166.364-.411.953-.734 1.765-.927 2.448-1.578 4.24-1.953 5.375-.959 2.907-1.604 4.907-1.938 6l-.859 2.891c-.74 2.573-1.11 4.209-1.11 4.906 0 .698.256 1.047.766 1.047.469 0 .844-.062 1.125-.187l.594-.282a.687.687 0 0 1 .328-.093Zm-10.734.968c1.073 0 2.302-1.046 3.687-3.14a20.849 20.849 0 0 0 3.032-7.078c-.042-.709-.339-1.23-.891-1.563-.188-.114-.474-.172-.86-.172-.374 0-.817.141-1.328.422-.5.271-.99.64-1.468 1.11-.47.468-.912 1.02-1.328 1.656a13.06 13.06 0 0 0-1.063 2c-.656 1.541-.984 3.057-.984 4.547 0 1.479.4 2.218 1.203 2.218Zm14.422 1.125c-.438-.416-.782-.942-1.032-1.578-.25-.646-.38-1.406-.39-2.28-.01-.876.094-1.761.312-2.657.23-.896.547-1.76.953-2.594a13.69 13.69 0 0 1 1.485-2.344 11.46 11.46 0 0 1 1.922-1.906c1.52-1.166 3.099-1.75 4.734-1.75 2.146 0 3.599.943 4.36 2.828.541 1.365.572 3.016.093 4.953a12.858 12.858 0 0 1-2.406 4.907c-1.156 1.49-2.521 2.547-4.094 3.172a6.35 6.35 0 0 1-2.344.468c-.76 0-1.442-.099-2.046-.297a4.084 4.084 0 0 1-1.547-.922Zm2.984-7.578c-.313.771-.563 1.563-.75 2.375-.177.813-.26 1.584-.25 2.313.01.719.12 1.286.328 1.703.219.406.568.61 1.047.61.48 0 .948-.162 1.406-.485a6.95 6.95 0 0 0 1.36-1.313 12.44 12.44 0 0 0 1.234-1.875c.385-.708.724-1.447 1.016-2.218.635-1.677.942-3.167.921-4.469 0-1.146-.234-1.875-.703-2.188-.187-.124-.453-.187-.796-.187-.334 0-.72.156-1.157.469-.437.302-.875.713-1.312 1.234-.438.521-.86 1.13-1.266 1.828a17.279 17.279 0 0 0-1.078 2.203Zm23.813-4.578c-.605 0-1.709.875-3.313 2.625-1.198 1.365-2.068 2.39-2.61 3.078l-1.406 1.782a54.544 54.544 0 0 0-1.421 2.859l-.844 1.813c-.219.447-.412.765-.578.953-.157.177-.375.265-.657.265-.27 0-.536-.052-.796-.156a2.252 2.252 0 0 1-.657-.375c-.396-.333-.594-.698-.594-1.094 0-.156.115-.463.344-.922l.594-1.265c.188-.375.406-.854.656-1.438l.875-2.14c1.23-3.073 1.844-5.058 1.844-5.953 0-.48-.156-.834-.469-1.063l-.312-.219c-.104-.073-.156-.198-.156-.375a.83.83 0 0 1 .203-.531c.145-.167.333-.313.562-.438.469-.24.938-.359 1.406-.359.48 0 .855.052 1.125.156.271.104.506.245.704.422.395.365.593.745.593 1.14 0 .397-.052.798-.156 1.204a12.66 12.66 0 0 1-.39 1.219c-.157.406-.323.802-.5 1.187a94.328 94.328 0 0 1-.782 1.657c-.094.197-.12.27-.078.218 1.906-2.468 3.052-3.927 3.438-4.375.802-.927 1.427-1.562 1.874-1.906.823-.615 1.6-.922 2.329-.922.739 0 1.328.23 1.765.688.438.458.656 1.062.656 1.812 0 .656-.166 1.427-.5 2.313a48.312 48.312 0 0 0-.671 1.859l2.297-3.031 1.281-1.531c.771-.865 1.448-1.433 2.031-1.704.583-.27 1.057-.406 1.422-.406.375 0 .739.068 1.094.203.364.136.672.328.922.578.531.51.796 1.188.796 2.032 0 .812-.187 1.646-.562 2.5a42.042 42.042 0 0 1-.984 2.109 45.936 45.936 0 0 0-.813 1.64c-.76 1.657-1.141 2.886-1.141 3.688 0 .563.23.844.688.844.437 0 .833-.094 1.187-.281.365-.188.599-.282.703-.282.219 0 .329.11.329.328 0 .928-.474 1.704-1.422 2.329-.636.427-1.219.64-1.75.64-.521 0-.943-.062-1.266-.187a2.426 2.426 0 0 1-.875-.594c-.583-.604-.875-1.36-.875-2.266 0-.906.115-1.74.344-2.5.229-.76.5-1.494.812-2.203a29.45 29.45 0 0 1 .938-1.968c.323-.605.568-1.084.734-1.438.334-.73.5-1.266.5-1.61 0-.406-.213-.609-.64-.609-.563 0-1.573.932-3.032 2.797-1.104 1.448-1.869 2.49-2.297 3.125l-1.078 1.563c-.604 1.146-1.067 2.099-1.39 2.859l-.797 1.813c-.198.447-.37.765-.516.953-.146.177-.349.265-.61.265-.26 0-.515-.041-.765-.125a2.222 2.222 0 0 1-.625-.328c-.406-.302-.61-.62-.61-.953 0-.344.11-.807.329-1.39.23-.594.51-1.256.844-1.985l2.187-4.625c.781-1.719 1.172-2.807 1.172-3.266 0-.468-.213-.703-.64-.703Zm1.546 4.406c.011 0 .016-.005.016-.015l.016-.031c-.021.02-.032.036-.032.047Z" fill="#FF7E20"/><path d="M116.812 23.203c-.77 1.156-1.531 2.1-2.281 2.828-.739.719-1.458 1.078-2.156 1.078-.354 0-.62-.083-.797-.25-.302-.27-.453-.526-.453-.765 0-.24.078-.417.234-.532 1.573-1.135 3.318-4.468 5.235-10l.922-2.624c1.062-3 1.963-4.86 2.703-5.579.26-.198.531-.296.812-.296s.526.046.735.14c.208.083.39.193.546.328.355.313.532.677.532 1.094 0 .156-.073.38-.219.672a15.24 15.24 0 0 0-.5 1.14l-1.984 5.516c2.531-.458 4.619-1.505 6.265-3.14 1.542-1.532 2.313-3.105 2.313-4.72 0-1.53-.688-2.536-2.063-3.015-.468-.167-1.015-.25-1.64-.25-.615 0-1.245.078-1.891.234-.646.157-1.281.36-1.906.61-1.261.51-2.292 1.11-3.094 1.797-.208.198-.437.297-.687.297a1.62 1.62 0 0 1-.704-.157 2.083 2.083 0 0 1-.578-.406c-.385-.364-.578-.734-.578-1.11 0-.385.136-.728.406-1.03.271-.303.631-.573 1.078-.813.448-.25.964-.469 1.547-.656a17.004 17.004 0 0 1 1.797-.5c1.25-.26 2.49-.39 3.719-.39 1.24 0 2.37.155 3.391.468 1.031.302 1.88.713 2.546 1.234 1.344 1.042 2.016 2.365 2.016 3.969v.25c-.094 1.969-.838 3.703-2.234 5.203-1.219 1.302-2.792 2.328-4.719 3.078-1.74.688-3.385 1.032-4.937 1.032h-.407c-.135 0-.265-.01-.39-.032-.938 2.365-1.797 4.13-2.579 5.297Zm26.344-.36c0 .96.339 1.438 1.016 1.438.469 0 .854-.073 1.156-.218.313-.146.521-.22.625-.22.219 0 .328.115.328.345 0 .895-.469 1.666-1.406 2.312-.99.677-2 .844-3.031.5-.677-.24-1.177-.755-1.5-1.547-.156-.406-.235-.776-.235-1.11 0-.54.052-1.114.157-1.718-.969 1.98-2.172 3.344-3.61 4.094a3.974 3.974 0 0 1-1.828.437c-.646 0-1.208-.13-1.687-.39-.469-.271-.87-.641-1.203-1.11-.678-.979-.985-2.208-.922-3.687.062-1.854.609-3.672 1.64-5.453.948-1.667 2.146-3.026 3.594-4.078 1.448-1.073 2.802-1.61 4.062-1.61 1.261 0 2.277.578 3.047 1.735.719-1.157 1.355-1.735 1.907-1.735.593 0 1.041.11 1.343.328.573.417.776.781.61 1.094-2.615 5.354-3.959 8.688-4.031 10a5.336 5.336 0 0 0-.032.594Zm-8.672.063c0 1.25.401 1.875 1.204 1.875.614 0 1.369-.52 2.265-1.562 1.313-1.532 2.474-3.594 3.485-6.188a22.53 22.53 0 0 0 .812-2.437c-.042-.709-.339-1.23-.891-1.563-.187-.114-.468-.172-.843-.172-.365 0-.797.136-1.297.407-.49.27-.969.64-1.438 1.109a10.04 10.04 0 0 0-1.297 1.672 13.425 13.425 0 0 0-1.046 2.078c-.636 1.604-.954 3.198-.954 4.781Zm23.11.688c-1.584 2.375-3.339 3.562-5.266 3.562-1.739 0-2.911-.927-3.516-2.781-.208-.635-.312-1.417-.312-2.344 0-.927.13-1.854.391-2.781a12.92 12.92 0 0 1 2.703-4.953 12.1 12.1 0 0 1 2-1.828c1.479-1.094 2.948-1.64 4.406-1.64 1.458 0 2.5.681 3.125 2.046.125-.135.24-.27.344-.406.104-.146.219-.281.343-.406.271-.271.506-.407.704-.407.208 0 .422.037.64.11.229.072.448.171.656.296.511.303.704.584.579.844a32.426 32.426 0 0 0-1.438 3.656l-2.312 7.375c-1.823 5.594-4.136 9.209-6.938 10.844-.739.438-1.38.688-1.922.75-.541.073-.932.078-1.172.016a2.363 2.363 0 0 1-.64-.266c-.407-.26-.61-.495-.61-.703 0-.364.24-.588.719-.672.49-.083 1-.281 1.531-.593a8.393 8.393 0 0 0 1.516-1.11c1.969-1.823 3.458-4.693 4.469-8.61Zm-4.688-5.422c-.271.75-.484 1.52-.64 2.312-.157.782-.235 1.422-.235 1.922s.016.88.047 1.14c.031.261.094.49.188.688.208.438.515.657.922.657.406 0 .807-.141 1.203-.422.395-.292.812-.688 1.25-1.188.437-.5.875-1.088 1.312-1.765.438-.677.854-1.407 1.25-2.188.875-1.729 1.49-3.38 1.844-4.953-.052-.292-.229-.588-.531-.89-.594-.573-1.131-.86-1.61-.86-.479 0-.958.151-1.437.453-.479.292-.938.693-1.375 1.203-.427.5-.828 1.089-1.203 1.766a15.329 15.329 0 0 0-.985 2.125Zm12.563 3.36c.041-.907.192-1.772.453-2.595.26-.833.609-1.635 1.047-2.406.437-.781.948-1.515 1.531-2.203a12.179 12.179 0 0 1 1.922-1.828c1.489-1.115 2.995-1.672 4.516-1.672 1.781 0 2.968.735 3.562 2.203.208.5.307 1.094.297 1.781a4.956 4.956 0 0 1-.391 1.891 5.553 5.553 0 0 1-1.047 1.578 7.42 7.42 0 0 1-1.578 1.266c-.604.375-1.265.693-1.984.953-1.479.52-3.063.792-4.75.813a2.905 2.905 0 0 0-.078.656c-.011.291.021.62.093.984.073.354.198.672.376.953.374.625.916.938 1.624.938 1.209 0 2.386-.354 3.532-1.063.406-.24.734-.484.984-.734.261-.26.484-.39.672-.39.188 0 .349.114.484.343.146.219.219.469.219.75 0 .552-.156 1.031-.469 1.438-1.312 1.312-3.265 1.968-5.859 1.968-1.531 0-2.76-.458-3.687-1.375-1.042-1.041-1.532-2.458-1.469-4.25Zm9.125-8.626c-1.094 0-2.146.75-3.156 2.25-.855 1.292-1.542 2.823-2.063 4.594a7.591 7.591 0 0 0 4.531-2.063c1.177-1.125 1.766-2.203 1.766-3.234 0-1.031-.36-1.547-1.078-1.547Z" fill="#000"/></svg>