<svg width="24" height="26" fill="none" xmlns="http://www.w3.org/2000/svg"><path d="M21.429.665H2.57C1.151.665 0 1.865 0 3.344v19.643c0 1.48 1.152 2.679 2.571 2.679H21.43c1.42 0 2.571-1.2 2.571-2.679V3.344C24 1.865 22.848.665 21.429.665Zm-2.62 8.862c.01.156.01.318.01.475 0 4.838-3.535 10.413-9.996 10.413a9.663 9.663 0 0 1-5.394-1.641c.284.034.557.045.846.045 1.645 0 3.155-.58 4.36-1.563-1.542-.033-2.839-1.088-3.283-2.539.54.084 1.028.084 1.585-.067-1.607-.34-2.812-1.814-2.812-3.594v-.044c.466.273 1.013.44 1.586.463a3.603 3.603 0 0 1-1.15-1.319 3.774 3.774 0 0 1-.415-1.728c0-.681.172-1.306.477-1.847 1.73 2.22 4.329 3.672 7.243 3.828-.498-2.483 1.286-4.498 3.429-4.498 1.012 0 1.923.44 2.566 1.155a6.72 6.72 0 0 0 2.228-.882A3.627 3.627 0 0 1 18.546 8.2a6.772 6.772 0 0 0 2.025-.57 7.573 7.573 0 0 1-1.762 1.898Z" fill="#fff"/></svg>
