<svg width="179" height="36" viewBox="0 0 179 36" fill="none" xmlns="http://www.w3.org/2000/svg">
<path d="M5.28125 26.6719C5.07292 26.974 4.70312 27.125 4.17188 27.125C3.65104 27.125 3.20833 26.9792 2.84375 26.6875C2.47917 26.3958 2.17708 26.0312 1.9375 25.5938C1.45833 24.7188 1.21875 23.8438 1.21875 22.9688C1.21875 22.0938 1.3125 21.1979 1.5 20.2812C1.69792 19.3646 1.96354 18.401 2.29688 17.3906C2.63021 16.3698 3.01562 15.3281 3.45312 14.2656C3.90104 13.2031 4.375 12.1667 4.875 11.1562C5.89583 9.05208 6.91146 7.22917 7.92188 5.6875H7.75C6.51042 5.6875 5.35938 5.96875 4.29688 6.53125C4.03646 6.72917 3.78646 6.82812 3.54688 6.82812C3.04688 6.82812 2.5625 6.58333 2.09375 6.09375C1.01042 4.94792 1.65625 4 4.03125 3.25C5.14583 2.88542 6.04167 2.70312 6.71875 2.70312C7.40625 2.70312 7.95833 2.8125 8.375 3.03125C8.79167 3.23958 9.14583 3.48958 9.4375 3.78125C9.89583 4.23958 10.2188 4.69271 10.4062 5.14062C10.6042 5.58854 10.7031 5.98438 10.7031 6.32812C10.7031 6.66146 10.599 7.11458 10.3906 7.6875C10.1927 8.25 9.9375 8.85417 9.625 9.5L8.5625 11.5625C8.1875 12.2812 7.8125 13.0365 7.4375 13.8281C7.0625 14.6198 6.6875 15.4115 6.3125 16.2031C5.9375 16.9948 5.60417 17.7656 5.3125 18.5156C4.67708 20.1927 4.35938 21.6146 4.35938 22.7812C4.35938 23.4271 4.42188 23.9844 4.54688 24.4531L6.1875 21.7188C9.52083 16.3438 12.8125 12.3021 16.0625 9.59375C16.9792 8.82292 17.8854 8.21875 18.7812 7.78125C18.9271 7.70833 19.099 7.67188 19.2969 7.67188C19.4948 7.67188 19.7031 7.69792 19.9219 7.75C20.151 7.79167 20.3646 7.85938 20.5625 7.95312C21.0208 8.17188 21.25 8.4375 21.25 8.75C21.25 8.89583 21.1979 9.03125 21.0938 9.15625L20.5469 9.75C18.4635 11.9583 17.0625 15.0417 16.3438 19C16.1146 20.2188 16 21.1875 16 21.9062C16 22.6146 16.0208 23.099 16.0625 23.3594C16.1042 23.6198 16.1875 23.8646 16.3125 24.0938C16.5938 24.6146 17.0156 24.875 17.5781 24.875C18.1406 24.875 18.7656 24.6667 19.4531 24.25C20.1406 23.8333 20.8333 23.2604 21.5312 22.5312C22.2396 21.8021 22.9219 20.9479 23.5781 19.9688C24.2448 18.9792 24.8333 17.9219 25.3438 16.7969C26.4896 14.3073 27.0625 11.9323 27.0625 9.67188C27.0625 7.93229 26.6771 6.45833 25.9062 5.25C25.6979 4.9375 25.901 4.53125 26.5156 4.03125C27.1406 3.51042 27.8438 3.25 28.625 3.25C29.6562 3.25 30.3542 4.16667 30.7188 6C30.8438 6.60417 30.9062 7.39583 30.9062 8.375C30.9062 9.35417 30.7865 10.4323 30.5469 11.6094C30.3073 12.7865 29.9688 13.9375 29.5312 15.0625C29.1042 16.1771 28.5938 17.25 28 18.2812C27.4167 19.3125 26.776 20.276 26.0781 21.1719C25.3802 22.0677 24.6406 22.8854 23.8594 23.625C23.0781 24.3542 22.2812 24.9792 21.4688 25.5C19.7917 26.6042 18.2031 27.1562 16.7031 27.1562C15.3281 27.1562 14.3021 26.6146 13.625 25.5312C13.0312 24.5938 12.7344 23.401 12.7344 21.9531C12.7344 19.5573 13.1979 17.2292 14.125 14.9688C13.2604 15.9375 12.4167 16.9375 11.5938 17.9688C9.55208 20.6354 8.13021 22.5469 7.32812 23.7031L5.28125 26.6719ZM38.6875 7.17188C38.4583 7.41146 38.1979 7.60938 37.9062 7.76562C37.6146 7.91146 37.3073 8.00521 36.9844 8.04688C36.6615 8.07812 36.3542 8.02604 36.0625 7.89062C35.7812 7.75521 35.5365 7.5625 35.3281 7.3125C34.8802 6.79167 34.6562 6.26562 34.6562 5.73438C34.6562 5.20312 34.7396 4.80729 34.9062 4.54688C35.0833 4.27604 35.3021 4.05729 35.5625 3.89062C36.0625 3.56771 36.5312 3.40625 36.9688 3.40625C37.4167 3.40625 37.7604 3.4375 38 3.5C38.25 3.5625 38.4792 3.66667 38.6875 3.8125C39.1979 4.15625 39.4531 4.57812 39.4531 5.07812C39.4531 5.56771 39.3802 5.97917 39.2344 6.3125C39.099 6.63542 38.9167 6.92188 38.6875 7.17188ZM35.4844 24.0781C35.7552 24.0781 35.8906 24.2552 35.8906 24.6094C35.8906 25.0781 35.6771 25.5625 35.25 26.0625C34.625 26.7917 33.7865 27.1562 32.7344 27.1562C31.526 27.1562 30.6979 26.6667 30.25 25.6875C30.0833 25.3438 30 24.9271 30 24.4375C30 23.9479 30.0833 23.4062 30.25 22.8125C30.4271 22.2083 30.6406 21.5781 30.8906 20.9219C31.151 20.2552 31.4323 19.5833 31.7344 18.9062L32.5625 16.9375C33.1667 15.4688 33.4688 14.5 33.4688 14.0312C33.4688 13.5625 33.4167 13.2552 33.3125 13.1094C33.2188 12.9531 33.1146 12.8333 33 12.75L32.6875 12.5312C32.5833 12.4583 32.5312 12.3333 32.5312 12.1562C32.5312 11.9688 32.599 11.7917 32.7344 11.625C32.8802 11.4583 33.0677 11.3125 33.2969 11.1875C33.7656 10.9479 34.3125 10.8281 34.9375 10.8281C36.4688 10.8281 37.2344 11.2292 37.2344 12.0312C37.2344 12.9688 36.9896 14.0417 36.5 15.25C36.0104 16.4479 35.5938 17.4167 35.25 18.1562L34.3125 20.3125C33.625 21.8958 33.2812 23.0365 33.2812 23.7344C33.2812 24.1927 33.5104 24.4219 33.9688 24.4219C34.4167 24.4219 34.7552 24.3646 34.9844 24.25C35.2135 24.1354 35.3802 24.0781 35.4844 24.0781ZM38.6562 24.25C38.6562 23.9271 38.724 23.6302 38.8594 23.3594C39.0052 23.0781 39.1823 22.8438 39.3906 22.6562C39.8281 22.25 40.2865 22.0469 40.7656 22.0469C41.1823 22.0469 41.3906 22.2604 41.3906 22.6875C41.3906 23.7708 41.75 24.526 42.4688 24.9531C42.7292 25.1094 43 25.1875 43.2812 25.1875C43.5625 25.1875 43.8021 25.1562 44 25.0938C44.1979 25.0312 44.3802 24.9323 44.5469 24.7969C44.9219 24.4948 45.1094 24.1354 45.1094 23.7188C45.1094 23.3021 45.0156 22.9219 44.8281 22.5781C44.6406 22.224 44.4062 21.8542 44.125 21.4688L43.2344 20.2188C41.9844 18.5521 41.3594 17.0156 41.3594 15.6094C41.3594 14.4427 41.8542 13.3854 42.8438 12.4375C43.9688 11.3646 45.4115 10.8281 47.1719 10.8281C48.7135 10.8281 49.9167 11.2083 50.7812 11.9688C51.4896 12.5833 51.8438 13.2865 51.8438 14.0781C51.8438 14.901 51.5312 15.5573 50.9062 16.0469C50.3438 16.4844 49.7812 16.6458 49.2188 16.5312C48.9688 16.4792 48.776 16.3542 48.6406 16.1562C48.5052 15.9479 48.4792 15.7135 48.5625 15.4531C48.6458 15.1927 48.6875 14.9219 48.6875 14.6406C48.6875 14.3594 48.6354 14.099 48.5312 13.8594C48.4271 13.6198 48.2865 13.4167 48.1094 13.25C47.7448 12.9062 47.3594 12.7344 46.9531 12.7344C46.5573 12.7344 46.2292 12.7812 45.9688 12.875C45.7083 12.9583 45.4792 13.0833 45.2812 13.25C44.875 13.625 44.6719 14.0885 44.6719 14.6406C44.6719 15.1823 44.7656 15.651 44.9531 16.0469C45.1406 16.4427 45.3698 16.8385 45.6406 17.2344C45.9219 17.6302 46.224 18.0312 46.5469 18.4375C46.8698 18.8438 47.1667 19.2708 47.4375 19.7188C48.0938 20.7708 48.4219 21.6979 48.4219 22.5C48.4219 23.2917 48.2552 23.9583 47.9219 24.5C47.5885 25.0312 47.1562 25.4896 46.625 25.875C45.4896 26.7188 44.2188 27.1406 42.8125 27.1406C41.4688 27.1406 40.4062 26.8177 39.625 26.1719C38.9792 25.6302 38.6562 24.9896 38.6562 24.25ZM68.5781 23.8438C68.7969 23.8438 68.9062 23.9583 68.9062 24.1875C68.9062 25.0833 68.4427 25.8542 67.5156 26.5C66.901 26.9375 66.3177 27.1562 65.7656 27.1562C65.224 27.1562 64.7917 27.0938 64.4688 26.9688C64.1458 26.8438 63.8542 26.6458 63.5938 26.375C63.0104 25.75 62.7188 24.8906 62.7188 23.7969C62.7188 23.5781 62.7604 23.2292 62.8438 22.75C62 24.0521 61.276 24.9688 60.6719 25.5C59.4531 26.6042 58.2604 27.1562 57.0938 27.1562C55.25 27.1562 54.0417 26.3229 53.4688 24.6562C53.2604 24.0417 53.1562 23.2708 53.1562 22.3438C53.1562 21.4167 53.2969 20.4792 53.5781 19.5312C53.8594 18.5833 54.2396 17.6823 54.7188 16.8281C55.2083 15.974 55.7708 15.1823 56.4062 14.4531C57.0521 13.7135 57.7292 13.0729 58.4375 12.5312C59.9583 11.3958 61.3333 10.8281 62.5625 10.8281C63.7917 10.8281 64.776 11.3281 65.5156 12.3281C67.3281 6.11979 68.6927 2.45833 69.6094 1.34375C69.9948 0.885417 70.401 0.65625 70.8281 0.65625C71.5365 0.65625 72.0729 0.859375 72.4375 1.26562C72.5521 1.40104 72.6094 1.53646 72.6094 1.67188C72.6094 1.80729 72.526 2.05729 72.3594 2.42188C72.1927 2.78646 71.9479 3.375 71.625 4.1875C70.6979 6.63542 70.0469 8.42708 69.6719 9.5625C68.7135 12.4688 68.0677 14.4688 67.7344 15.5625L66.875 18.4531C66.1354 21.026 65.7656 22.6615 65.7656 23.3594C65.7656 24.0573 66.0208 24.4062 66.5312 24.4062C67 24.4062 67.375 24.3438 67.6562 24.2188L68.25 23.9375C68.3646 23.875 68.474 23.8438 68.5781 23.8438ZM57.8438 24.8125C58.9167 24.8125 60.1458 23.7656 61.5312 21.6719C62.9792 19.5052 63.9896 17.1458 64.5625 14.5938C64.5208 13.8854 64.224 13.3646 63.6719 13.0312C63.4844 12.9167 63.1979 12.8594 62.8125 12.8594C62.4375 12.8594 61.9948 13 61.4844 13.2812C60.9844 13.5521 60.4948 13.9219 60.0156 14.3906C59.5469 14.8594 59.1042 15.4115 58.6875 16.0469C58.2812 16.6719 57.9271 17.3385 57.625 18.0469C56.9688 19.5885 56.6406 21.1042 56.6406 22.5938C56.6406 24.0729 57.0417 24.8125 57.8438 24.8125ZM72.2656 25.9375C71.8281 25.5208 71.4844 24.9948 71.2344 24.3594C70.9844 23.7135 70.8542 22.9531 70.8438 22.0781C70.8333 21.2031 70.9375 20.3177 71.1562 19.4219C71.3854 18.526 71.7031 17.6615 72.1094 16.8281C72.526 15.9948 73.0208 15.2135 73.5938 14.4844C74.1771 13.7552 74.8177 13.1198 75.5156 12.5781C77.0365 11.4115 78.6146 10.8281 80.25 10.8281C82.3958 10.8281 83.849 11.7708 84.6094 13.6562C85.151 15.0208 85.1823 16.6719 84.7031 18.6094C84.2656 20.3906 83.4635 22.026 82.2969 23.5156C81.1406 25.0052 79.776 26.0625 78.2031 26.6875C77.4115 27 76.6302 27.1562 75.8594 27.1562C75.099 27.1562 74.4167 27.0573 73.8125 26.8594C73.2188 26.6615 72.7031 26.3542 72.2656 25.9375ZM75.25 18.3594C74.9375 19.1302 74.6875 19.9219 74.5 20.7344C74.3229 21.5469 74.2396 22.3177 74.25 23.0469C74.2604 23.7656 74.3698 24.3333 74.5781 24.75C74.7969 25.1562 75.1458 25.3594 75.625 25.3594C76.1042 25.3594 76.5729 25.1979 77.0312 24.875C77.5 24.5417 77.9531 24.1042 78.3906 23.5625C78.8281 23.0208 79.2396 22.3958 79.625 21.6875C80.0104 20.9792 80.349 20.2396 80.6406 19.4688C81.276 17.7917 81.5833 16.3021 81.5625 15C81.5625 13.8542 81.3281 13.125 80.8594 12.8125C80.6719 12.6875 80.4062 12.625 80.0625 12.625C79.7292 12.625 79.3438 12.7812 78.9062 13.0938C78.4688 13.3958 78.0312 13.8073 77.5938 14.3281C77.1562 14.849 76.7344 15.4583 76.3281 16.1562C75.9219 16.8542 75.5625 17.5885 75.25 18.3594ZM99.0625 13.7812C98.4583 13.7812 97.3542 14.6562 95.75 16.4062C94.5521 17.7708 93.6823 18.7969 93.1406 19.4844L91.7344 21.2656C91.1302 22.4115 90.6562 23.3646 90.3125 24.125L89.4688 25.9375C89.25 26.3854 89.0573 26.7031 88.8906 26.8906C88.7344 27.0677 88.5156 27.1562 88.2344 27.1562C87.9635 27.1562 87.6979 27.1042 87.4375 27C87.1875 26.9062 86.9688 26.7812 86.7812 26.625C86.3854 26.2917 86.1875 25.9271 86.1875 25.5312C86.1875 25.375 86.3021 25.0677 86.5312 24.6094L87.125 23.3438C87.3125 22.9688 87.5312 22.4896 87.7812 21.9062L88.6562 19.7656C89.8854 16.6927 90.5 14.7083 90.5 13.8125C90.5 13.3333 90.3438 12.9792 90.0312 12.75L89.7188 12.5312C89.6146 12.4583 89.5625 12.3333 89.5625 12.1562C89.5625 11.9688 89.6302 11.7917 89.7656 11.625C89.9115 11.4583 90.099 11.3125 90.3281 11.1875C90.7969 10.9479 91.2656 10.8281 91.7344 10.8281C92.2135 10.8281 92.5885 10.8802 92.8594 10.9844C93.1302 11.0885 93.3646 11.2292 93.5625 11.4062C93.9583 11.7708 94.1562 12.151 94.1562 12.5469C94.1562 12.9427 94.1042 13.3438 94 13.75C93.8958 14.1458 93.7656 14.5521 93.6094 14.9688C93.4531 15.375 93.2865 15.7708 93.1094 16.1562C92.6927 17.0521 92.4323 17.6042 92.3281 17.8125C92.2344 18.0104 92.2083 18.0833 92.25 18.0312C94.1562 15.5625 95.3021 14.1042 95.6875 13.6562C96.4896 12.7292 97.1146 12.0938 97.5625 11.75C98.3854 11.1354 99.1615 10.8281 99.8906 10.8281C100.63 10.8281 101.219 11.0573 101.656 11.5156C102.094 11.974 102.312 12.5781 102.312 13.3281C102.312 13.9844 102.146 14.7552 101.812 15.6406C101.479 16.526 101.255 17.1458 101.141 17.5L103.438 14.4688L104.719 12.9375C105.49 12.0729 106.167 11.5052 106.75 11.2344C107.333 10.9635 107.807 10.8281 108.172 10.8281C108.547 10.8281 108.911 10.8958 109.266 11.0312C109.63 11.1667 109.938 11.3594 110.188 11.6094C110.719 12.1198 110.984 12.7969 110.984 13.6406C110.984 14.4531 110.797 15.2865 110.422 16.1406C110.047 16.9948 109.719 17.6979 109.438 18.25C109.156 18.7917 108.885 19.3385 108.625 19.8906C107.865 21.5469 107.484 22.776 107.484 23.5781C107.484 24.1406 107.714 24.4219 108.172 24.4219C108.609 24.4219 109.005 24.3281 109.359 24.1406C109.724 23.9531 109.958 23.8594 110.062 23.8594C110.281 23.8594 110.391 23.9688 110.391 24.1875C110.391 25.1146 109.917 25.8906 108.969 26.5156C108.333 26.9427 107.75 27.1562 107.219 27.1562C106.698 27.1562 106.276 27.0938 105.953 26.9688C105.63 26.8438 105.339 26.6458 105.078 26.375C104.495 25.7708 104.203 25.0156 104.203 24.1094C104.203 23.2031 104.318 22.3698 104.547 21.6094C104.776 20.849 105.047 20.1146 105.359 19.4062C105.672 18.6875 105.984 18.0312 106.297 17.4375C106.62 16.8333 106.865 16.3542 107.031 16C107.365 15.2708 107.531 14.7344 107.531 14.3906C107.531 13.9844 107.318 13.7812 106.891 13.7812C106.328 13.7812 105.318 14.7135 103.859 16.5781C102.755 18.026 101.99 19.0677 101.562 19.7031L100.484 21.2656C99.8802 22.4115 99.4167 23.3646 99.0938 24.125L98.2969 25.9375C98.099 26.3854 97.9271 26.7031 97.7812 26.8906C97.6354 27.0677 97.4323 27.1562 97.1719 27.1562C96.9115 27.1562 96.6562 27.1146 96.4062 27.0312C96.1667 26.9479 95.9583 26.8385 95.7812 26.7031C95.375 26.401 95.1719 26.0833 95.1719 25.75C95.1719 25.4062 95.2812 24.9427 95.5 24.3594C95.7292 23.7656 96.0104 23.1042 96.3438 22.375L98.5312 17.75C99.3125 16.0312 99.7031 14.9427 99.7031 14.4844C99.7031 14.0156 99.4896 13.7812 99.0625 13.7812ZM100.609 18.1875C100.62 18.1875 100.625 18.1823 100.625 18.1719L100.641 18.1406C100.62 18.1615 100.609 18.1771 100.609 18.1875Z" fill="#FF7E20"/>
<path d="M116.812 23.2031C116.042 24.3594 115.281 25.3021 114.531 26.0312C113.792 26.75 113.073 27.1094 112.375 27.1094C112.021 27.1094 111.755 27.026 111.578 26.8594C111.276 26.5885 111.125 26.3333 111.125 26.0938C111.125 25.8542 111.203 25.6771 111.359 25.5625C112.932 24.4271 114.677 21.0938 116.594 15.5625L117.516 12.9375C118.578 9.9375 119.479 8.07812 120.219 7.35938C120.479 7.16146 120.75 7.0625 121.031 7.0625C121.312 7.0625 121.557 7.10938 121.766 7.20312C121.974 7.28646 122.156 7.39583 122.312 7.53125C122.667 7.84375 122.844 8.20833 122.844 8.625C122.844 8.78125 122.771 9.00521 122.625 9.29688C122.479 9.58854 122.312 9.96875 122.125 10.4375L120.141 15.9531C122.672 15.4948 124.76 14.4479 126.406 12.8125C127.948 11.2812 128.719 9.70833 128.719 8.09375C128.719 6.5625 128.031 5.55729 126.656 5.07812C126.188 4.91146 125.641 4.82812 125.016 4.82812C124.401 4.82812 123.771 4.90625 123.125 5.0625C122.479 5.21875 121.844 5.42188 121.219 5.67188C119.958 6.18229 118.927 6.78125 118.125 7.46875C117.917 7.66667 117.688 7.76562 117.438 7.76562C117.188 7.76562 116.953 7.71354 116.734 7.60938C116.516 7.50521 116.323 7.36979 116.156 7.20312C115.771 6.83854 115.578 6.46875 115.578 6.09375C115.578 5.70833 115.714 5.36458 115.984 5.0625C116.255 4.76042 116.615 4.48958 117.062 4.25C117.51 4 118.026 3.78125 118.609 3.59375C119.193 3.39583 119.792 3.22917 120.406 3.09375C121.656 2.83333 122.896 2.70312 124.125 2.70312C125.365 2.70312 126.495 2.85938 127.516 3.17188C128.547 3.47396 129.396 3.88542 130.062 4.40625C131.406 5.44792 132.078 6.77083 132.078 8.375V8.625C131.984 10.5938 131.24 12.3281 129.844 13.8281C128.625 15.1302 127.052 16.1562 125.125 16.9062C123.385 17.5938 121.74 17.9375 120.188 17.9375H119.781C119.646 17.9375 119.516 17.9271 119.391 17.9062C118.453 20.2708 117.594 22.0365 116.812 23.2031ZM143.156 22.8438C143.156 23.8021 143.495 24.2812 144.172 24.2812C144.641 24.2812 145.026 24.2083 145.328 24.0625C145.641 23.9167 145.849 23.8438 145.953 23.8438C146.172 23.8438 146.281 23.9583 146.281 24.1875C146.281 25.0833 145.812 25.8542 144.875 26.5C143.885 27.1771 142.875 27.3438 141.844 27C141.167 26.7604 140.667 26.2448 140.344 25.4531C140.188 25.0469 140.109 24.6771 140.109 24.3438C140.109 23.8021 140.161 23.2292 140.266 22.625C139.297 24.6042 138.094 25.9688 136.656 26.7188C136.083 27.0104 135.474 27.1562 134.828 27.1562C134.182 27.1562 133.62 27.026 133.141 26.7656C132.672 26.4948 132.271 26.125 131.938 25.6562C131.26 24.6771 130.953 23.4479 131.016 21.9688C131.078 20.1146 131.625 18.2969 132.656 16.5156C133.604 14.849 134.802 13.4896 136.25 12.4375C137.698 11.3646 139.052 10.8281 140.312 10.8281C141.573 10.8281 142.589 11.4062 143.359 12.5625C144.078 11.4062 144.714 10.8281 145.266 10.8281C145.859 10.8281 146.307 10.9375 146.609 11.1562C147.182 11.5729 147.385 11.9375 147.219 12.25C144.604 17.6042 143.26 20.9375 143.188 22.25C143.167 22.4375 143.156 22.6354 143.156 22.8438ZM134.484 22.9062C134.484 24.1562 134.885 24.7812 135.688 24.7812C136.302 24.7812 137.057 24.2604 137.953 23.2188C139.266 21.6875 140.427 19.625 141.438 17.0312C141.76 16.2188 142.031 15.4062 142.25 14.5938C142.208 13.8854 141.911 13.3646 141.359 13.0312C141.172 12.9167 140.891 12.8594 140.516 12.8594C140.151 12.8594 139.719 12.9948 139.219 13.2656C138.729 13.5365 138.25 13.9062 137.781 14.375C137.323 14.8438 136.891 15.401 136.484 16.0469C136.089 16.6823 135.74 17.375 135.438 18.125C134.802 19.7292 134.484 21.3229 134.484 22.9062ZM157.594 23.5938C156.01 25.9688 154.255 27.1562 152.328 27.1562C150.589 27.1562 149.417 26.2292 148.812 24.375C148.604 23.7396 148.5 22.9583 148.5 22.0312C148.5 21.1042 148.63 20.1771 148.891 19.25C149.161 18.3125 149.526 17.4271 149.984 16.5938C150.443 15.7604 150.979 14.9948 151.594 14.2969C152.219 13.5885 152.885 12.9792 153.594 12.4688C155.073 11.375 156.542 10.8281 158 10.8281C159.458 10.8281 160.5 11.5104 161.125 12.875C161.25 12.7396 161.365 12.6042 161.469 12.4688C161.573 12.3229 161.688 12.1875 161.812 12.0625C162.083 11.7917 162.318 11.6562 162.516 11.6562C162.724 11.6562 162.938 11.6927 163.156 11.7656C163.385 11.8385 163.604 11.9375 163.812 12.0625C164.323 12.3646 164.516 12.6458 164.391 12.9062C163.818 14.1458 163.339 15.3646 162.953 16.5625L160.641 23.9375C158.818 29.5312 156.505 33.1458 153.703 34.7812C152.964 35.2188 152.323 35.4688 151.781 35.5312C151.24 35.6042 150.849 35.6094 150.609 35.5469C150.37 35.4844 150.156 35.3958 149.969 35.2812C149.562 35.0208 149.359 34.7865 149.359 34.5781C149.359 34.2135 149.599 33.9896 150.078 33.9062C150.568 33.8229 151.078 33.625 151.609 33.3125C152.141 33.0104 152.646 32.6406 153.125 32.2031C155.094 30.3802 156.583 27.5104 157.594 23.5938ZM152.906 18.1719C152.635 18.9219 152.422 19.6927 152.266 20.4844C152.109 21.2656 152.031 21.9062 152.031 22.4062C152.031 22.9062 152.047 23.2865 152.078 23.5469C152.109 23.8073 152.172 24.0365 152.266 24.2344C152.474 24.6719 152.781 24.8906 153.188 24.8906C153.594 24.8906 153.995 24.75 154.391 24.4688C154.786 24.1771 155.203 23.7812 155.641 23.2812C156.078 22.7812 156.516 22.1927 156.953 21.5156C157.391 20.8385 157.807 20.1094 158.203 19.3281C159.078 17.599 159.693 15.9479 160.047 14.375C159.995 14.0833 159.818 13.7865 159.516 13.4844C158.922 12.9115 158.385 12.625 157.906 12.625C157.427 12.625 156.948 12.776 156.469 13.0781C155.99 13.3698 155.531 13.7708 155.094 14.2812C154.667 14.7812 154.266 15.3698 153.891 16.0469C153.516 16.7135 153.188 17.4219 152.906 18.1719ZM165.469 21.5312C165.51 20.625 165.661 19.7604 165.922 18.9375C166.182 18.1042 166.531 17.3021 166.969 16.5312C167.406 15.75 167.917 15.0156 168.5 14.3281C169.094 13.6302 169.734 13.0208 170.422 12.5C171.911 11.3854 173.417 10.8281 174.938 10.8281C176.719 10.8281 177.906 11.5625 178.5 13.0312C178.708 13.5312 178.807 14.125 178.797 14.8125C178.786 15.4896 178.656 16.1198 178.406 16.7031C178.156 17.276 177.807 17.8021 177.359 18.2812C176.922 18.75 176.396 19.1719 175.781 19.5469C175.177 19.9219 174.516 20.2396 173.797 20.5C172.318 21.0208 170.734 21.2917 169.047 21.3125C169.005 21.4583 168.979 21.6771 168.969 21.9688C168.958 22.2604 168.99 22.5885 169.062 22.9531C169.135 23.3073 169.26 23.625 169.438 23.9062C169.812 24.5312 170.354 24.8438 171.062 24.8438C172.271 24.8438 173.448 24.4896 174.594 23.7812C175 23.5417 175.328 23.2969 175.578 23.0469C175.839 22.7865 176.062 22.6562 176.25 22.6562C176.438 22.6562 176.599 22.7708 176.734 23C176.88 23.2188 176.953 23.4688 176.953 23.75C176.953 24.3021 176.797 24.7812 176.484 25.1875C175.172 26.5 173.219 27.1562 170.625 27.1562C169.094 27.1562 167.865 26.6979 166.938 25.7812C165.896 24.7396 165.406 23.3229 165.469 21.5312ZM174.594 12.9062C173.5 12.9062 172.448 13.6562 171.438 15.1562C170.583 16.4479 169.896 17.9792 169.375 19.75C171.115 19.5729 172.625 18.8854 173.906 17.6875C175.083 16.5625 175.672 15.4844 175.672 14.4531C175.672 13.4219 175.312 12.9062 174.594 12.9062Z" fill="black"/>
</svg>
