<svg width="24" height="26" viewBox="0 0 24 26" fill="none" xmlns="http://www.w3.org/2000/svg">
<path d="M12 10.189C11.4349 10.1893 10.8825 10.364 10.4128 10.6912C9.94298 11.0184 9.57689 11.4834 9.36078 12.0273C9.14466 12.5713 9.08823 13.1697 9.19861 13.7471C9.30899 14.3244 9.58122 14.8547 9.98089 15.2708C10.3806 15.687 10.8897 15.9704 11.444 16.0852C11.9983 16.1999 12.5728 16.1409 13.0948 15.9156C13.6169 15.6903 14.0631 15.3087 14.3771 14.8193C14.691 14.3298 14.8586 13.7543 14.8586 13.1657C14.858 12.3762 14.5566 11.6193 14.0206 11.0611C13.4846 10.503 12.7579 10.1893 12 10.189ZM18.6809 7.90104C18.5354 7.51702 18.3158 7.16823 18.0355 6.87631C17.7553 6.58438 17.4204 6.35556 17.0518 6.20402C15.9268 5.7414 13.2482 5.8452 12 5.8452C10.7518 5.8452 8.07589 5.73749 6.94768 6.20402C6.57902 6.35556 6.24419 6.58438 5.96395 6.87631C5.68371 7.16823 5.46404 7.51702 5.31857 7.90104C4.875 9.07294 4.97411 11.866 4.97411 13.1651C4.97411 14.4642 4.875 17.2539 5.32071 18.4297C5.46618 18.8137 5.68585 19.1625 5.96609 19.4545C6.24633 19.7464 6.58117 19.9752 6.94982 20.1267C8.07482 20.5894 10.7534 20.4856 12.0021 20.4856C13.2509 20.4856 15.9257 20.5933 17.0539 20.1267C17.4226 19.9752 17.7574 19.7464 18.0377 19.4545C18.3179 19.1625 18.5376 18.8137 18.683 18.4297C19.1304 17.2578 19.0275 14.4648 19.0275 13.1657C19.0275 11.8665 19.1304 9.07741 18.683 7.9016L18.6809 7.90104ZM12 17.7416C11.1312 17.7416 10.2819 17.4733 9.55946 16.9705C8.83706 16.4676 8.27401 15.753 7.94153 14.9168C7.60904 14.0807 7.52205 13.1606 7.69155 12.2729C7.86105 11.3853 8.27943 10.5699 8.89378 9.92995C9.50813 9.28999 10.2909 8.85417 11.143 8.6776C11.9951 8.50103 12.8784 8.59165 13.6811 8.938C14.4838 9.28435 15.1698 9.87086 15.6525 10.6234C16.1352 11.3759 16.3929 12.2606 16.3929 13.1657C16.3936 13.7668 16.2804 14.3622 16.0599 14.9177C15.8394 15.4732 15.5158 15.9779 15.1078 16.403C14.6997 16.8281 14.2152 17.1651 13.6819 17.3948C13.1486 17.6245 12.5771 17.7424 12 17.7416ZM16.5739 9.46581C16.3711 9.46592 16.1728 9.40337 16.0041 9.28607C15.8354 9.16877 15.7039 9.002 15.6262 8.80684C15.5486 8.61168 15.5282 8.3969 15.5677 8.18967C15.6072 7.98244 15.7048 7.79207 15.8482 7.64264C15.9915 7.49321 16.1742 7.39143 16.3732 7.35017C16.5721 7.30891 16.7783 7.33003 16.9657 7.41085C17.153 7.49168 17.3132 7.62858 17.4259 7.80424C17.5386 7.9799 17.5988 8.18643 17.5988 8.39771C17.5993 8.53801 17.5733 8.67704 17.5221 8.80684C17.471 8.93664 17.3958 9.05464 17.3008 9.15408C17.2058 9.25352 17.0928 9.33244 16.9685 9.38632C16.8441 9.4402 16.7108 9.46797 16.5761 9.46804L16.5739 9.46581ZM21.4286 0.665405H2.57143C1.88944 0.665405 1.23539 0.947617 0.753154 1.44996C0.270918 1.9523 0 2.63362 0 3.34403L0 22.9873C0 23.6977 0.270918 24.379 0.753154 24.8814C1.23539 25.3837 1.88944 25.6659 2.57143 25.6659H21.4286C22.1106 25.6659 22.7646 25.3837 23.2468 24.8814C23.7291 24.379 24 23.6977 24 22.9873V3.34403C24 2.63362 23.7291 1.9523 23.2468 1.44996C22.7646 0.947617 22.1106 0.665405 21.4286 0.665405ZM20.5114 16.8488C20.4423 18.279 20.1289 19.5464 19.1266 20.5877C18.1243 21.629 16.9088 21.9622 15.5373 22.0302C14.1225 22.1134 9.88071 22.1134 8.46589 22.0302C7.09286 21.9583 5.88054 21.6312 4.87661 20.5877C3.87268 19.5441 3.55714 18.2763 3.49179 16.8488C3.41196 15.3744 3.41196 10.9552 3.49179 9.48255C3.56089 8.05227 3.87054 6.78495 4.87661 5.74363C5.88268 4.70232 7.09821 4.37307 8.46589 4.30499C9.88071 4.22184 14.1225 4.22184 15.5373 4.30499C16.9104 4.37698 18.1264 4.70399 19.1266 5.74754C20.1268 6.79109 20.4461 8.05897 20.5114 9.48925C20.5913 10.958 20.5913 15.3733 20.5114 16.8488Z" fill="white"/>
</svg>
