<svg width="24" height="26" viewBox="0 0 24 26" fill="none" xmlns="http://www.w3.org/2000/svg">
<path d="M22.2857 0.665405H1.70893C0.766071 0.665405 0 1.47457 0 2.4679V23.8634C0 24.8567 0.766071 25.6659 1.70893 25.6659H22.2857C23.2286 25.6659 24 24.8567 24 23.8634V2.4679C24 1.47457 23.2286 0.665405 22.2857 0.665405ZM7.25357 22.0944H3.69643V10.1634H7.25893V22.0944H7.25357ZM5.475 8.53387C4.33393 8.53387 3.4125 7.56845 3.4125 6.38539C3.4125 5.20233 4.33393 4.23691 5.475 4.23691C6.61071 4.23691 7.5375 5.20233 7.5375 6.38539C7.5375 7.57403 6.61607 8.53387 5.475 8.53387ZM20.5875 22.0944H17.0304V16.2907C17.0304 14.9068 17.0036 13.1266 15.1821 13.1266C13.3286 13.1266 13.0446 14.6333 13.0446 16.1903V22.0944H9.4875V10.1634H12.9V11.7929H12.9482C13.425 10.8553 14.5875 9.8676 16.3179 9.8676C19.9179 9.8676 20.5875 12.3397 20.5875 15.5541V22.0944Z" fill="white"/>
</svg>
