<svg width="24" height="26" fill="none" xmlns="http://www.w3.org/2000/svg"><path d="M12 10.189c-.565 0-1.117.175-1.587.502s-.836.792-1.052 1.336a3.092 3.092 0 0 0-.162 1.72c.11.577.382 1.108.782 1.524.4.416.909.7 1.463.814a2.752 2.752 0 0 0 1.65-.17 2.887 2.887 0 0 0 1.283-1.096c.314-.49.482-1.065.482-1.653-.001-.79-.302-1.547-.838-2.105A2.803 2.803 0 0 0 12 10.19Zm6.68-2.288a3.027 3.027 0 0 0-.645-1.025 2.885 2.885 0 0 0-.983-.672c-1.125-.463-3.804-.359-5.052-.359-1.248 0-3.924-.108-5.052.359-.369.152-.704.38-.984.672-.28.292-.5.641-.645 1.025-.444 1.172-.345 3.965-.345 5.264 0 1.3-.099 4.089.347 5.265.145.384.365.733.645 1.024.28.292.615.521.984.673 1.125.462 3.803.359 5.052.359 1.249 0 3.924.107 5.052-.36.369-.15.703-.38.984-.672.28-.291.5-.64.645-1.024.447-1.172.345-3.965.345-5.264 0-1.3.102-4.089-.345-5.264l-.002-.001ZM12 17.741a4.269 4.269 0 0 1-2.44-.77 4.541 4.541 0 0 1-1.618-2.054 4.753 4.753 0 0 1-.25-2.644A4.638 4.638 0 0 1 8.894 9.93a4.342 4.342 0 0 1 2.249-1.252 4.23 4.23 0 0 1 2.538.26 4.437 4.437 0 0 1 1.972 1.685c.482.753.74 1.638.74 2.543 0 .6-.113 1.196-.333 1.752a4.589 4.589 0 0 1-.952 1.485 4.38 4.38 0 0 1-1.426.992 4.234 4.234 0 0 1-1.682.347Zm4.574-8.275a.996.996 0 0 1-.57-.18 1.06 1.06 0 0 1-.378-.48 1.11 1.11 0 0 1-.058-.616c.04-.208.137-.398.28-.547.143-.15.326-.252.525-.293a.987.987 0 0 1 .593.06c.187.082.347.219.46.394a1.1 1.1 0 0 1 .173.594 1.105 1.105 0 0 1-.298.756.988.988 0 0 1-.725.314l-.002-.002Zm4.855-8.8H2.57a2.52 2.52 0 0 0-1.818.784A2.736 2.736 0 0 0 0 3.344v19.643c0 .71.27 1.392.753 1.894a2.52 2.52 0 0 0 1.818.785H21.43a2.52 2.52 0 0 0 1.818-.785A2.736 2.736 0 0 0 24 22.987V3.344c0-.71-.27-1.392-.753-1.894a2.52 2.52 0 0 0-1.818-.785Zm-.918 16.183c-.069 1.43-.382 2.697-1.384 3.739-1.003 1.041-2.218 1.374-3.59 1.442-1.415.083-5.656.083-7.071 0-1.373-.072-2.585-.399-3.59-1.442-1.003-1.044-1.319-2.312-1.384-3.74-.08-1.474-.08-5.893 0-7.365.069-1.43.379-2.698 1.385-3.74 1.006-1.04 2.221-1.37 3.589-1.438 1.415-.083 5.657-.083 7.071 0 1.373.072 2.59.399 3.59 1.443 1 1.043 1.32 2.311 1.384 3.741.08 1.469.08 5.884 0 7.36Z" fill="#fff"/></svg>